<?xml version="1.0" encoding="UTF-8"?>
<svg xmlns="http://www.w3.org" width="336" height="336" viewBox="0 0 336 336">
    <circle cx="168" cy="168" r="168" fill="black"/>
   <path fill="white" d="M250.7,114.2 c-1.7,17.9 -8.9,61.4 -12.6,81 c-1.6,8.3 -4.6,11.1 -7.6,11.4 c-6.5,0.6 -11.4,-4.3 -17.7,-8.4 c-9.9,-6.5 -15.5,-10.5 -25.1,-16.8 c-11.1,-7.3 -3.9,-11.3 2.4,-18 c1.7,-1.7 30.5,-27.9 31.1,-30.4 c0.1,-0.3 0.1,-1.4 -0.6,-2.1 c-0.7,-0.6 -1.7,-0.4 -2.5,-0.2 c-1.1,0.2 -18.8,11.9 -53.2,35.1 c-5,3.4 -9.5,5.1 -13.5,5 c-4.5,-0.1 -13.1,-2.5 -19.5,-4.6 c-7.9,-2.6 -14.1,-4 -13.6,-8.4 c0.3,-2.3 3.4,-4.6 9.4,-7.1 c36.6,-15.9 61,-26.4 73.2,-31.4 c34.8,-14.4 42,-16.9 46.7,-17 c1,0 3.3,0.2 4.7,1.4 c1.2,1 1.7,2.3 1.8,3.3 c0.1,1.1 0.2,3.4 0.1,5.6 Z"/>
</svg>
