<?xml version="1.0" encoding="UTF-8"?>
<svg width="336" height="336" viewBox="0 0 336 336" xmlns="http://www.w3.org">
    <path fill="white" fill-rule="evenodd" d="M168,0C75.21,0 0,75.21 0,168s75.21,168 168,168s168,-75.21 168,-168S260.79,0 168,0zM242.05,116.23c-1.7,17.9 -8.9,61.4 -12.6,81c-1.6,8.3 -4.6,11.1 -7.6,11.4c-6.5,0.6 -11.4,-4.3 -17.7,-8.4c-9.9,-6.5 -15.5,-10.5 -25.1,-16.8c-11.1,-7.3 -3.9,-11.3 2.4,-18c2.47,-2.57 45.44,-41.6 46.27,-45.15c0.1,-0.44 0.2,-0.2 -0.78,-0.97c-0.98,-0.77 -2.43,-0.58 -3.48,-0.34c-1.48,0.34 -25.07,15.96 -70.77,46.85c-6.7,4.6 -12.77,6.84 -18.21,6.72c-5.99,-0.13 -17.54,-3.39 -26.11,-6.17c-10.52,-3.42 -18.88,-5.23 -18.15,-11.04c0.38,-3.03 4.54,-6.11 12.5,-9.28c48.98,-21.34 81.65,-35.41 98,-42.21c46.65,-19.41 56.33,-22.78 62.65,-22.89c1.39,-0.02 4.5,0.32 6.51,1.95c1.7,1.38 2.17,3.24 2.39,4.55c0.22,1.31 0.5,4.29 0.28,6.61z"/>
</svg>
