<?xml version="1.0" encoding="UTF-8"?>
<svg xmlns="http://www.w3.org" width="336" height="336" viewBox="0 0 336 336" version="1.1">
  <g id="surface1">
    <path fill="#ffffff" fill-rule="evenodd" stroke="none" 
      d="M 168,0 C 75.21,0 0,75.21 0,168 C 0,260.79 75.21,336 168,336 C 260.79,336 336,260.79 336,168 C 336,75.21 260.79,0 168,0 Z M 76.05,166.23 C 125.03,144.90 157.67,130.83 174,124.04 C 220.62,104.64 230.31,101.27 236.62,101.16 C 238.01,101.13 241.12,101.48 243.13,103.11 C 244.83,104.49 245.29,106.35 245.52,107.66 C 245.74,108.97 246.02,111.94 245.8,114.27 C 243.27,140.83 232.34,205.25 226.77,235 C 224.42,247.58 219.78,251.80 215.3,252.21 C 205.55,253.11 198.14,245.77 188.7,239.57 C 173.92,229.88 165.57,223.85 151.23,214.39 C 134.65,203.47 145.39,197.46 154.84,187.65 C 157.31,185.08 200.27,146.01 201.11,142.46 C 201.21,142.02 201.31,140.37 200.32,139.49 C 199.34,138.62 197.89,138.92 196.84,139.16 C 195.36,139.49 171.75,155.10 126.02,185.97 C 119.32,190.57 113.25,192.81 107.81,192.69 C 101.82,192.57 90.28,189.31 81.71,186.52 C 71.17,183.10 62.81,181.29 63.54,175.49 C 63.92,172.46 68.08,169.37 76.05,166.23 Z"/>
  </g>
</svg>
